<svg width="50" height="43" viewBox="0 0 50 43" fill="none" xmlns="http://www.w3.org/2000/svg">
<path d="M37.4319 2.32029V12.3565L24.9546 19.3178V5.37051L33.9251 0.450805C34.2737 0.255577 34.6685 0.15083 35.0712 0.146717C35.4739 0.142604 35.871 0.239264 36.2237 0.42733C36.5765 0.615394 36.8731 0.888485 37.0849 1.22014C37.2965 1.55179 37.4161 1.93074 37.4319 2.32029Z" fill="#0EA5EA"/>
<path opacity="0.3" d="M12.4771 2.32029V12.3565L24.9546 19.3178V5.37051L15.984 0.450805C15.6354 0.255577 15.2407 0.15083 14.8379 0.146717C14.4351 0.142604 14.0382 0.239264 13.6854 0.42733C13.3326 0.615394 13.036 0.888485 12.8243 1.22014C12.6126 1.55179 12.4931 1.93074 12.4771 2.32029Z" fill="#0EA5EA"/>
<path d="M34.9318 41.7218L26.2075 36.7411L26.3481 22.4679L38.4724 29.3895L38.2974 39.6088C38.294 40.008 38.1892 40.4024 37.9929 40.7536C37.7965 41.1048 37.5156 41.401 37.177 41.6136C36.8385 41.8261 36.4539 41.9477 36.0604 41.9668C35.6671 41.9856 35.2783 41.9013 34.9318 41.7218Z" fill="#0EA5EA"/>
<path opacity="0.3" d="M47.3161 20.0847L38.5917 15.1041L26.3481 22.4679L38.4724 29.3895L47.2008 24.0531C47.5435 23.8477 47.8306 23.5573 48.0339 23.2103C48.2374 22.8631 48.3504 22.471 48.3619 22.0718C48.3736 21.6726 48.2833 21.2799 48.1001 20.9317C47.9168 20.5835 47.6468 20.2918 47.3161 20.0847Z" fill="#0EA5EA"/>
<path opacity="0.3" d="M14.2737 41.7218L22.9981 36.7411L22.8575 22.4679L10.7331 29.3895L10.9082 39.6088C10.9115 40.008 11.0164 40.4024 11.2127 40.7536C11.409 41.1048 11.69 41.401 12.0286 41.6136C12.3671 41.8261 12.7517 41.9477 13.1451 41.9668C13.5384 41.9856 13.9272 41.9013 14.2737 41.7218Z" fill="#0EA5EA"/>
<path d="M1.88949 20.0847L10.6139 15.1041L22.8575 22.4679L10.7331 29.3895L2.00471 24.0531C1.66199 23.8477 1.37502 23.5573 1.17158 23.2103C0.968151 22.8631 0.855165 22.471 0.843574 22.0718C0.831983 21.6726 0.92218 21.2799 1.10542 20.9317C1.28867 20.5835 1.55875 20.2918 1.88949 20.0847Z" fill="#0EA5EA"/>
</svg>
