<svg width="36" height="31" viewBox="0 0 36 31" fill="none" xmlns="http://www.w3.org/2000/svg">
<path d="M26.951 1.67277V8.90816L17.9673 13.9268V3.87176L24.4261 0.324999C24.6771 0.184253 24.9613 0.108738 25.2513 0.105773C25.5412 0.102808 25.8271 0.172493 26.0811 0.308075C26.3351 0.443656 26.5486 0.640536 26.7011 0.879633C26.8535 1.11873 26.9396 1.39193 26.951 1.67277Z" fill="#0EA5EA"/>
<path opacity="0.3" d="M8.98355 1.67277V8.90816L17.9673 13.9268V3.87176L11.5085 0.324999C11.2575 0.184253 10.9733 0.108738 10.6833 0.105773C10.3933 0.102808 10.1075 0.172493 9.8535 0.308075C9.5995 0.443656 9.38594 0.640536 9.23352 0.879633C9.0811 1.11873 8.995 1.39193 8.98355 1.67277Z" fill="#0EA5EA"/>
<path d="M25.1509 30.0785L18.8694 26.4878L18.9706 16.1978L27.7001 21.1878L27.5741 28.5552C27.5717 28.843 27.4962 29.1273 27.3549 29.3805C27.2135 29.6337 27.0112 29.8472 26.7674 30.0005C26.5237 30.1537 26.2468 30.2414 25.9635 30.2551C25.6803 30.2687 25.4004 30.2079 25.1509 30.0785Z" fill="#0EA5EA"/>
<path opacity="0.3" d="M34.0676 14.4797L27.786 10.889L18.9706 16.1978L27.7001 21.1878L33.9846 17.3406C34.2313 17.1925 34.438 16.9832 34.5844 16.733C34.7309 16.4827 34.8123 16.2 34.8206 15.9122C34.829 15.6244 34.764 15.3413 34.6321 15.0903C34.5001 14.8393 34.3057 14.629 34.0676 14.4797Z" fill="#0EA5EA"/>
<path opacity="0.3" d="M10.2771 30.0785L16.5586 26.4878L16.4574 16.1978L7.72785 21.1878L7.85393 28.5552C7.8563 28.843 7.9318 29.1273 8.07312 29.3805C8.21445 29.6337 8.41679 29.8472 8.66056 30.0005C8.90432 30.1537 9.18123 30.2414 9.46444 30.2551C9.74766 30.2687 10.0276 30.2079 10.2771 30.0785Z" fill="#0EA5EA"/>
<path d="M1.36043 14.4797L7.64198 10.889L16.4574 16.1978L7.72785 21.1878L1.44339 17.3406C1.19663 17.1925 0.990009 16.9832 0.843538 16.733C0.697066 16.4827 0.615716 16.2 0.607371 15.9122C0.599025 15.6244 0.663967 15.3413 0.795903 15.0903C0.92784 14.8393 1.1223 14.629 1.36043 14.4797Z" fill="#0EA5EA"/>
</svg>
